<svg width="30" height="30" viewBox="0 0 30 30" fill="none" xmlns="http://www.w3.org/2000/svg">
<path d="M14.074 2.4018L4.25 13.3998C4.10044 13.5651 4.0128 13.7771 4.002 13.9998C3.99 14.2198 4.058 14.4198 4.194 14.5998L14.014 27.5198C14.124 27.6678 14.274 27.7898 14.444 27.8738C14.6173 27.9579 14.8074 28.0015 15 28.0015C15.1926 28.0015 15.3827 27.9579 15.556 27.8738C15.726 27.7917 15.8741 27.6704 15.988 27.5198L25.808 14.5998C25.941 14.4289 26.0084 14.2161 25.998 13.9998C25.9872 13.7771 25.8995 13.5651 25.75 13.3998L15.926 2.4018C15.81 2.27462 15.6682 2.1737 15.51 2.1058C15.2691 2.0021 15.0022 1.97488 14.7454 2.02782C14.4886 2.08076 14.2542 2.21131 14.074 2.4018Z" fill="black"/>
</svg>
