<svg width="15" height="15" viewBox="0 0 15 15" fill="none" xmlns="http://www.w3.org/2000/svg">
<path d="M7.97466 0.847022L9.55201 4.44468C9.61134 4.58007 9.70593 4.69706 9.82589 4.78343C9.94586 4.8698 10.0868 4.92238 10.234 4.93569L14.0766 5.28022C14.5114 5.34351 14.6848 5.87671 14.3696 6.18374L11.4751 8.61538C11.2407 8.81226 11.134 9.12163 11.1985 9.42046L12.0399 13.3591C12.1137 13.7916 11.6602 14.122 11.2711 13.9169L7.91724 11.9529C7.79075 11.8786 7.64673 11.8395 7.50006 11.8395C7.35338 11.8395 7.20936 11.8786 7.08287 11.9529L3.72896 13.9158C3.34107 14.1197 2.88638 13.7904 2.96021 13.358L3.80162 9.41929C3.8649 9.12046 3.75943 8.81108 3.52505 8.61421L0.629352 6.18491C0.315289 5.87905 0.488727 5.34468 0.92232 5.2814L4.7649 4.93687C4.91212 4.92356 5.05308 4.87097 5.17304 4.7846C5.29301 4.69823 5.3876 4.58125 5.44693 4.44585L7.02427 0.848194C7.21998 0.454444 7.78013 0.454444 7.97466 0.847022Z" fill="#FDD835"/>
<path d="M7.85977 4.66045L7.59258 2.00967C7.58203 1.86201 7.55156 1.60889 7.78828 1.60889C7.97578 1.60889 8.07773 1.99912 8.07773 1.99912L8.8793 4.12725C9.18164 4.93701 9.05742 5.21475 8.76562 5.37881C8.43047 5.56631 7.93594 5.41982 7.85977 4.66045Z" fill="#FFFF8D"/>
<path d="M11.1657 8.38017L13.4649 6.58603C13.5785 6.49111 13.7836 6.33994 13.6196 6.16767C13.4895 6.03174 13.1379 6.22744 13.1379 6.22744L11.1258 7.01377C10.5258 7.22119 10.1274 7.52822 10.0922 7.91494C10.0465 8.43057 10.5094 8.82783 11.1657 8.38017Z" fill="#F4B400"/>
</svg>
